<?xml version="1.0" standalone="no"?>
<!DOCTYPE svg PUBLIC "-//W3C//DTD SVG 20010904//EN"
 "http://www.w3.org/TR/2001/REC-SVG-20010904/DTD/svg10.dtd">
<svg version="1.0" xmlns="http://www.w3.org/2000/svg"
 width="85.000000pt" height="85.000000pt" viewBox="0 0 85.000000 85.000000"
 preserveAspectRatio="xMidYMid meet">
<metadata>
Created by potrace 1.14, written by Peter Selinger 2001-2017
</metadata>
<g transform="translate(0.000000,85.000000) scale(0.100000,-0.100000)"
fill="#000000" stroke="none">
<path d="M365 837 c-11 -8 -39 -20 -61 -27 -45 -14 -127 -77 -118 -91 3 -5 1
-9 -5 -9 -16 0 -51 -42 -51 -61 0 -10 -12 -31 -26 -48 -14 -17 -24 -39 -22
-48 2 -10 -10 -30 -29 -46 -35 -31 -58 -86 -48 -117 6 -20 14 -20 414 -20
l409 0 6 31 c3 17 4 34 1 38 -9 15 -17 67 -16 101 2 40 -38 129 -58 130 -7 0
-26 11 -43 25 -16 14 -42 28 -56 32 -15 3 -70 31 -122 61 -104 59 -144 71
-175 49z"/>
<path d="M10 340 c0 -29 29 -99 61 -145 87 -129 220 -196 372 -190 117 5 216
52 296 142 46 51 101 160 101 198 0 23 -79 21 -86 -2 -41 -132 -132 -218 -259
-248 -163 -38 -337 59 -391 219 -15 44 -17 46 -55 46 -32 0 -39 -3 -39 -20z"/>
<path d="M110 348 c1 -53 85 -162 156 -204 51 -30 71 -35 149 -39 144 -6 277
91 320 233 l6 22 -315 0 c-246 0 -316 -3 -316 -12z"/>
</g>
</svg>
